Simulation
nRows=35
nColumns=15
endheader
time  TH_x TH_y TH_z SC_y  SC_z  SC_x  AC_y  AC_z  AC_x  GH_y  GH_z  GH_yy  EL_x  PS_y
1.9499999999999993  0.000000  0.000000  0.000000  -29.68479037268146  7.3572294274114345  24.70727522765392  63.352180069890885  10.542282026684427  -2.567394285442589  48.291238509843865  60.697385563062475  -43.885756862105396  22.35654149072196  0.000000
1.9889999999999992  0.000000  0.000000  0.000000  -29.531026946211174  7.083639605102207  24.198900558893026  63.120555186455945  10.366361586797504  -3.2072281515302583  48.76787918056793  59.78486093846812  -43.4377124525856  22.57306003671384  0.000000
2.027999999999999  0.000000  0.000000  0.000000  -29.33040818212096  6.7673957194122885  23.631256772813447  62.86501060307181  10.162478093750536  -3.9044678849244185  49.28769985116544  58.76402059881536  -43.034316810252314  22.778874459524857  0.000000
2.0669999999999993  0.000000  0.000000  0.000000  -29.08808029595761  6.412228084384521  23.01294778827014  62.59380000803806  9.929211685488314  -4.640734163587417  49.847681955197075  57.647335761524054  -42.6788666334992  22.960578130495254  0.000000
2.1059999999999994  0.000000  0.000000  0.000000  -28.81161448060415  6.02106874393723  22.354698650731134  62.312103718133436  9.668657819940098  -5.4013904646690865  50.42800210473716  56.449001950778005  -42.33137925482169  23.107163559397247  0.000000
2.144999999999999  0.000000  0.000000  0.000000  -28.50897288697266  5.596948398948396  21.6641499878371  62.0213394791159  9.387037881143831  -6.175016503941965  50.99696516306831  55.18424943236262  -41.93009999741702  23.211276857869414  0.000000
2.1839999999999993  0.000000  0.000000  0.000000  -28.18884148245258  5.1433445230144565  20.94198346333653  61.72034334201884  9.093221789458088  -6.9511801274740685  51.52302178199938  53.8690656216363  -41.42407184647345  23.27273615461487  0.000000
2.2229999999999994  0.000000  0.000000  0.000000  -27.862505018392245  4.6635759430406125  20.17949196485338  61.408340716220366  8.79695872041422  -7.717532435775702  51.98315604789169  52.520363651430806  -40.79246501108556  23.301733715968975  0.000000
2.261999999999999  0.000000  0.000000  0.000000  -27.545476555269744  4.162519829324861  19.358214325808426  61.08726571941643  8.50659651941125  -8.454179041970708  52.36115777213327  51.15449506390504  -40.03825932048986  23.31819074977247  0.000000
2.3009999999999993  0.000000  0.000000  0.000000  -27.257658371111404  3.648842589778611  18.45183204521828  60.763968647556226  8.226674643950407  -9.12856694125342  52.63504226637262  49.78446631064829  -39.160517953624584  23.34649328085527  0.000000
2.339999999999999  0.000000  0.000000  0.000000  -27.01887575821879  3.1361443171511283  17.429861387535862  60.44850134534138  7.958566544506968  -9.695809042693245  52.76379033554868  48.41511023353986  -38.12702665464679  23.40822200873279  0.000000
2.378999999999999  0.000000  0.000000  0.000000  -26.84106727765178  2.641364293696874  16.264971579075134  60.14969075790882  7.705409147271406  -10.109563029544177  52.687144277211516  47.03923070610569  -36.869135200998464  23.517550666634655  0.000000
2.4179999999999993  0.000000  0.000000  0.000000  -26.7251139445668  2.1790002675281444  14.942051193565021  59.8694639669833  7.476845891405106  -10.338457905290987  52.34455352813593  45.639978453829634  -35.30625246327164  23.684842448064003  0.000000
2.456999999999999  0.000000  0.000000  0.000000  -26.66511401827852  1.7550294972998328  13.463915663605276  59.5990441611159  7.289407551453162  -10.376734882391121  51.69972537065792  44.20017591081078  -33.38075771774153  23.92257733869431  0.000000
2.495999999999999  0.000000  0.000000  0.000000  -26.65437834752944  1.367894120265251  11.850305576140826  59.32420855768075  7.1601472896151  -10.241413585211877  50.744423506387676  42.710989887789424  -31.07526925325288  24.24333842612374  0.000000
2.5349999999999993  0.000000  0.000000  0.000000  -26.688816385398663  1.0137646101350013  10.132727471092968  59.03372171811324  7.098500361776401  -9.961599464256388  49.48727866797014  41.17528657951955  -28.41104462148044  24.652616971774222  0.000000
2.573999999999999  0.000000  0.000000  0.000000  -26.765496544888762  0.6888790296353867  8.349137635310479  58.722217396080865  7.104465287927488  -9.569675897066553  47.948158512567865  39.60438499051553  -25.44201982587492  25.142154368050722  0.000000
2.612999999999999  0.000000  0.000000  0.000000  -26.87887233149852  0.3904040659567943  6.539451726165314  58.39048207306796  7.170081534332883  -9.096635398644704  46.15729048835533  38.01274877163233  -22.24815934700058  25.685695788422347  0.000000
2.6519999999999992  0.000000  0.000000  0.000000  -27.020214977514755  0.11666481076947711  4.743260572972642  58.04240300583407  7.282577077813654  -8.571338094843572  44.1589319604161  36.412347328280894  -18.92832192118543  26.24154416353259  0.000000
2.690999999999999  0.000000  0.000000  0.000000  -27.180131126415834  -0.13255891221851362  2.9988418436373085  57.68160065364792  7.4286099256110765  -8.022192406958347  42.01321261796328  34.80836451182404  -15.589402078888195  26.76192952484573  0.000000
2.729999999999999  0.000000  0.000000  0.000000  -27.351833099752984  -0.3554106024660435  1.3429532835091271  57.30789248188479  7.597295023465347  -7.478421738771175  39.79472750459611  33.197640551622484  -12.333007519801317  27.204066380459768  0.000000
2.768999999999999  0.000000  0.000000  0.000000  -27.532391467213593  -0.5479940443592931  -0.18938460164582555  56.91667540022546  7.781287137848919  -6.970625441176574  37.58692336137407  31.570475613366806  -9.245098508467606  27.53783485123038  0.000000
2.807999999999999  0.000000  0.000000  0.000000  -27.72175128986052  -0.7054486181858957  -1.5655623262280414  56.50039090778464  7.975064664223576  -6.529263107710212  35.47414109474107  29.914945400436444  -6.391526313291888  27.747507848582675  0.000000
2.846999999999999  0.000000  0.000000  0.000000  -27.920260980919444  -0.8236431372283511  -2.7567612193700977  56.052431048373606  8.17229399024312  -6.182078713207938  33.53289796983547  28.22191739528193  -3.8189937823824454  27.829657468744166  0.000000
2.885999999999999  0.000000  0.000000  0.000000  -28.124923834604257  -0.9006486270169426  -3.739182594034673  55.57049970527441  8.363520092794925  -5.9509502610278915  31.820718780146834  26.488735895256948  -1.5528216909988697  27.790889348108553  0.000000
2.924999999999999  0.000000  0.000000  0.000000  -28.328010714990107  -0.9383990040614358  -4.495634526181672  55.0599519572078  8.535787886809885  -5.849934983539545  30.364063425261417  24.721692396386842  0.4064408090231154  27.64696407875876  0.000000
2.963999999999999  0.000000  0.000000  0.000000  -28.51898552839342  -0.9431781620179382  -5.017077958677053  54.53515364038824  8.673550492921562  -5.883973171798542  29.146853321501872  22.937024001654656  2.0886472773057294  27.423519444053408  0.000000
3.002999999999999  0.000000  0.000000  0.000000  -28.68790179633169  -0.9243015922762965  -5.304905472767717  54.01957935065095  8.761582621955846  -6.0473689640820165  28.106657789310752  21.159333404589628  3.553366779723075  27.155352143698998  0.000000
3.041999999999999  0.000000  0.000000  0.000000  -28.828924943140823  -0.8932912256020383  -5.372700856968104  53.54397363931553  8.787224877858366  -6.323078187022528  27.14725166929203  19.419817909941436  4.874771097027639  26.877962626438222  0.000000
3.080999999999999  0.000000  0.000000  0.000000  -28.94093138344961  -0.8615043246064802  -5.243143905537274  53.14121740931798  8.74020543470718  -6.685129734274379  26.171566715301427  17.75227876291389  6.111676811396241  26.616388114056125  0.000000
3.1199999999999988  0.000000  0.000000  0.000000  -29.027844929815473  -0.8349590582589582  -4.9451662958274385  52.83677109454408  8.614176457770688  -7.102061208312265  25.131674146485054  16.187916301188455  7.266307624346241  26.380573675502244  0.000000
3.158999999999999  0.000000  0.000000  0.000000  -29.098413791682976  -0.8111985634688379  -4.5119638520824985  52.64002806306612  8.409466457752933  -7.541447855326501  24.070474904842914  14.751064668321828  8.251773314106977  26.16992461196716  0.000000
3.197999999999999  0.000000  0.000000  0.000000  -29.16257722711647  -0.7819680861968976  -3.9785232544627234  52.54069095970515  8.136216505392884  -7.9754499408775725  23.121616109188707  13.456790709944453  8.901903569944839  25.983002491175057  0.000000
3.2369999999999988  0.000000  0.000000  0.000000  -29.226314131259763  -0.73934925727136  -3.3806320351596453  52.515286033668644  7.815487917172033  -8.385099742602783  22.464180849778973  12.31235590784375  9.021584053788896  25.8237207321265  0.000000
3.275999999999999  0.000000  0.000000  0.000000  -29.288194137980202  -0.6812500474387578  -2.75381721562547  52.5391075372522  7.474900677218244  -8.759195786908666  22.245598027075314  11.321258311990448  8.464902211494676  25.700358411712017  0.000000
